<?xml version="1.0" encoding="utf-8"?>
<!-- Generator: Adobe Illustrator 25.3.1, SVG Export Plug-In . SVG Version: 6.00 Build 0)  -->
<svg version="1.1" id="Layer_1" xmlns="http://www.w3.org/2000/svg" xmlns:xlink="http://www.w3.org/1999/xlink" x="0px" y="0px"
	 viewBox="0 0 300 300" style="enable-background:new 0 0 300 300;" xml:space="preserve">
<style type="text/css">
	.st0{fill:#7823DC;}
</style>
<path class="st0" d="M-702.3,300c-72.6,0-131.6-59-131.6-131.6s59-131.6,131.6-131.6h9.4V159h122.2v9.4
	C-570.7,241-629.7,300-702.3,300z M-711.7,56c-57.8,4.8-103.4,53.4-103.4,112.4c0,62.2,50.6,112.8,112.8,112.8
	c59,0,107.6-45.6,112.4-103.4h-121.8V56z"/>
<g>
	<path class="st0" d="M-639.5,1.9l-35.4,35.4v103h141v-9.4C-533.9,67.2-579.3,13.9-639.5,1.9z M-656,121.4v-103
		c54.7,4.5,98.5,48.3,103,103H-656z"/>
</g>
<g>
	<g>
		<path class="st0" d="M-275.2,300c-82.7,0-150-67.3-150-150s67.3-150,150-150s150,67.3,150,150S-192.5,300-275.2,300z M-275.2,18.8
			c-72.4,0-131.2,58.9-131.2,131.2s58.9,131.2,131.2,131.2s131.2-58.9,131.2-131.2S-202.8,18.8-275.2,18.8z"/>
	</g>
	<g>
		<rect x="-415.7" y="140.6" class="st0" width="280.9" height="18.8"/>
	</g>
	<g>
		<path class="st0" d="M-275.2,300c-37.4,0-65.6-64.5-65.6-150S-312.6,0-275.2,0s65.6,64.5,65.6,150S-237.8,300-275.2,300z
			 M-275.2,18.8c-22.2,0-46.9,53.9-46.9,131.2s24.7,131.2,46.9,131.2s46.9-53.9,46.9-131.2S-253,18.8-275.2,18.8z"/>
	</g>
</g>
<g>
	<g>
		<path class="st0" d="M91.4,56.1c15.5,0,28.2,12.6,28.2,28.2s-12.6,28.2-28.2,28.2S63.2,99.8,63.2,84.3S75.9,56.1,91.4,56.1
			 M91.4,37.3c-25.9,0-47,21-47,47c0,25.9,21,47,47,47s47-21,47-47C138.4,58.3,117.4,37.3,91.4,37.3L91.4,37.3z"/>
	</g>
	<g>
		<polygon class="st0" points="288.3,267.4 255,234.1 288.3,200.9 275,187.6 241.8,220.8 208.5,187.6 195.2,200.9 228.5,234.1 
			195.2,267.4 208.5,280.6 241.8,247.4 275,280.6 		"/>
	</g>
	<g>
		<polygon class="st0" points="251.2,58.6 219.2,26.6 187.2,58.6 173.9,45.3 219.2,0 264.5,45.3 		"/>
	</g>
	<g>
		<path class="st0" d="M229.6,25h-18.8c0,124.7-87.3,231.2-204,255.9V300C134,275.1,229.6,160,229.6,25z"/>
	</g>
</g>
</svg>
