<svg id="Layer_1" data-name="Layer 1" xmlns="http://www.w3.org/2000/svg" viewBox="0 0 300 300"><defs><style>.cls-1{fill:#7823dc;}.cls-2{fill:none;}</style></defs><path class="cls-1" d="M200.90661,62.35993h-18.7548v8.53344a23.44349,23.44349,0,0,0-22.13067,22.88086c0,13.59722,6.75172,20.25518,22.31822,23.34972v14.15988a10.59649,10.59649,0,0,1-4.40737-8.34589H158.14565a25.13144,25.13144,0,0,0,24.00614,24.56879v8.43965h18.7548v-8.34589A24.19369,24.19369,0,0,0,225.008,123.31484q-.00037-.09468-.00147-.18936c0-14.535-9.3774-20.25518-24.09992-22.78708V86.55362a8.721,8.721,0,0,1,3.84473,6.75173H223.975a23.4435,23.4435,0,0,0-23.06842-22.50576Zm-18.7548,35.07148a5.3451,5.3451,0,0,1-3.37587-5.43889,6.18908,6.18908,0,0,1,3.18832-5.34511v10.784Zm18.7548,34.79016V119.8434a5.53267,5.53267,0,0,1,4.40737,5.72021A6.93926,6.93926,0,0,1,200.90661,132.22157Z"/><path class="cls-2" d="M82.47,108.96561v-4.40738a89.8355,89.8355,0,0,0-61.89084,70.98693,88.89625,88.89625,0,0,0-1.21906,15.1914,90.39814,90.39814,0,0,0,90.30437,90.30436,99.68223,99.68223,0,0,0,15.09761-1.31283A90.023,90.023,0,0,0,195.8428,217.931H191.623A109.24672,109.24672,0,0,1,82.47,108.96561Z"/><path class="cls-1" d="M196.53219,217.40145a90.023,90.023,0,0,1-71.0807,61.79707,99.681,99.681,0,0,1-15.09761,1.31283A90.39814,90.39814,0,0,1,20.04951,190.207a88.89775,88.89775,0,0,1,1.40661-15.19139A89.83551,89.83551,0,0,1,83.347,104.02868a106.1521,106.1521,0,0,1,1.50039-13.87856c0-2.1568.844-4.21983,1.31284-6.28286a109.05917,109.05917,0,0,0,24.19369,215.68021,116.56221,116.56221,0,0,0,18.19215-1.59416,108.68408,108.68408,0,0,0,88.42889-83.08376c-2.15679.46886-4.21983,1.03152-6.28285,1.31283A130.15743,130.15743,0,0,1,196.53219,217.40145Z"/><path class="cls-2" d="M123.98809,207.05323a5.53267,5.53267,0,0,0-4.40738-5.72022V213.6174A7.033,7.033,0,0,0,123.98809,207.05323Z"/><path class="cls-2" d="M97.09878,173.38836a5.15758,5.15758,0,0,0,3.18832,5.4389V168.51211h0A6.1891,6.1891,0,0,0,97.09878,173.38836Z"/><path class="cls-1" d="M93.13644,154.53979a21.568,21.568,0,0,0-14.62875,20.44273c0,13.59724,6.75173,20.349,22.31821,23.34973v14.535a10.59651,10.59651,0,0,1-4.40738-8.2521H76.81975a25.03766,25.03766,0,0,0,24.00615,24.475v8.53343h18.7548v-8.34588a24.38124,24.38124,0,0,0,24.00614-22.78709,109.24676,109.24676,0,0,1-42.76094-37.97848v10.31515a5.15757,5.15757,0,0,1-3.18831-5.4389,6.18908,6.18908,0,0,1,3.00076-5.15756A101.55587,101.55587,0,0,1,93.13644,154.53979Zm26.44427,59.07763V201.333a5.53267,5.53267,0,0,1,4.40738,5.72022A7.03306,7.03306,0,0,1,119.58071,213.61742Z"/><path class="cls-1" d="M191.623.00022A108.68409,108.68409,0,0,0,85.4708,84.39682c-.46887,2.063-1.03151,4.12606-1.31284,6.28286a106.15059,106.15059,0,0,0-1.50038,13.87855v4.40738a107.37123,107.37123,0,0,0,10.12759,45.57417,101.55638,101.55638,0,0,0,7.50193,13.691h0a109.24662,109.24662,0,0,0,42.76095,37.97847,106.99585,106.99585,0,0,0,48.57494,11.628h4.21983a130.15645,130.15645,0,0,0,13.87855-1.50038c2.063,0,4.12606-.844,6.28286-1.31283A108.9654,108.9654,0,0,0,191.623.00022Zm27.0069,195.1437a86.17864,86.17864,0,0,1-12.00308,2.907l-6.93927.93774c-2.81322,0-5.53267.46887-8.06457.46887a90.49192,90.49192,0,0,1-90.39815-90.39815v-8.25211a31.80545,31.80545,0,0,1,.93775-6.93928,75.01951,75.01951,0,0,1,3.00076-12.00307A90.2106,90.2106,0,1,1,218.62989,195.33147Z"/></svg>