<svg id="Layer_1" data-name="Layer 1" xmlns="http://www.w3.org/2000/svg" viewBox="0 0 300 300"><defs><style>.cls-1{fill:#7823dc;}</style></defs><path class="cls-1" d="M230.02975,20.978H202.72359L180.56347,43.13872l-20.96283.17816-10.35338,3.11581-14.62982,9.50268-3.13529,2.53894-4.8808,4.88137L84.29931,105.66l.00057,27.30559a42.65726,42.65726,0,0,0,55.28258,4.316l27.77075-20.23071,42.99463-3.43489-11.87147-18.1369-37.41149,2.264-32.85149,23.932A23.34856,23.34856,0,0,1,97.953,119.31252l42.30147-42.30375,4.88138-4.88081,14.62924-9.50325,27.96381-.23831.44626.44683,28.20155-28.20212,69.97025,69.97025-28.20155,28.20212.08765.08765-9.09881,18.95781L262.156,169.34078l12.2215-25.46325L300,118.25444V90.94828Z"/><path class="cls-1" d="M271.51431,183.43039a38.40882,38.40882,0,0,0-11.58848-27.42532L221.56,118.35584l-4.70207-4.70322L198.47637,95.47906l-20.81618,5.99618,25.68725,25.68724,4.83039,4.8304,38.36589,37.64923a19.57411,19.57411,0,0,1,.13118,27.812L194.20509,145.965l-13.444,13.444L236.565,215.21177a9.88022,9.88022,0,0,1-13.97274,13.97273l-55.80331-55.8033-13.93378,13.93435,48.82639,48.82639a9.87982,9.87982,0,1,1-13.97217,13.97217l-48.827-48.82639L124.94863,215.2215l41.86093,41.85864-2.54466,2.5441a16.16125,16.16125,0,0,1-22.85615.00057l-30.43228-30.43057-4.8304-4.83039L41.21016,159.42793l-.23545-27.6705.44168-.44168L13.50986,103.40923,82.74742,34.17167,110.65394,62.0782l.08708-.08708,27.6705.236,3.36616,3.36615,20.94392-6.07694L151.922,48.7167,138.57422,43.121l-20.02735-.17014-22.289-22.289H69.23756L0,89.89936v27.02031l21.92811,21.92811.177,20.74285,5.59517,13.34774,64.93592,64.93592,4.82982,4.82982,30.43286,30.43114a35.26832,35.26832,0,0,0,49.87645-.00058L180.32,270.59v-2.27714a28.98666,28.98666,0,0,0,42.43323-17.9318,29.20942,29.20942,0,0,0,6.82568.80315,28.98609,28.98609,0,0,0,26.72871-40.20134l3.87772-.01833A38.41328,38.41328,0,0,0,271.51431,183.43039Z"/></svg>