<svg id="Layer_1" data-name="Layer 1" xmlns="http://www.w3.org/2000/svg" viewBox="0 0 300 300"><defs><style>.cls-1{fill:#7823dc;}</style></defs><path class="cls-1" d="M150,300C67.29126,300,0,232.70874,0,150S67.29126,0,150,0,300,67.29126,300,150,232.70874,300,150,300Zm0-281.25C77.62756,18.75,18.75,77.62756,18.75,150S77.62756,281.25,150,281.25,281.25,222.37244,281.25,150,222.37244,18.75,150,18.75Z"/><rect class="cls-1" x="9.53979" y="140.625" width="280.91125" height="18.75"/><path class="cls-1" d="M150,300c-37.40845,0-65.625-64.48975-65.625-150S112.59155,0,150,0s65.625,64.48975,65.625,150S187.40845,300,150,300Zm0-281.25c-22.17407,0-46.875,53.90625-46.875,131.25S127.82593,281.25,150,281.25,196.875,227.34375,196.875,150,172.17407,18.75,150,18.75Z"/></svg>