<svg id="Layer_1" data-name="Layer 1" xmlns="http://www.w3.org/2000/svg" viewBox="0 0 300 300"><defs><style>.cls-1{fill:#7823dc;}</style></defs><rect class="cls-1" y="187.5" width="18.75" height="112.5"/><rect class="cls-1" x="150" y="187.5" width="18.75" height="112.5"/><polygon class="cls-1" points="84.375 226.594 45.281 187.5 18.75 187.5 84.375 253.125 150 187.5 123.469 187.5 84.375 226.594"/><path class="cls-1" d="M84.375,112.5A28.125,28.125,0,1,1,56.25,140.625,28.125,28.125,0,0,1,84.375,112.5m0-18.75a46.875,46.875,0,1,0,46.875,46.875A46.875,46.875,0,0,0,84.375,93.75Z"/><polygon class="cls-1" points="206.438 74.906 281.25 74.906 281.25 149.344 265.031 149.344 265.031 168 300 168 300 93 263.062 56.156 206.719 56.156 206.438 74.906"/><polygon class="cls-1" points="18.75 168.094 18.75 18.75 206.25 18.75 206.25 149.344 150 149.344 150 168 225 168 225 36.844 188.062 0 0 0 0 168.094 18.75 168.094"/><rect class="cls-1" x="243.9375" y="111.84375" width="46.875" height="18.75"/><rect class="cls-1" x="206.4375" y="149.34375" width="32.34376" height="18.75"/><path class="cls-1" d="M251.25065,186.84441a24.939,24.939,0,1,1,24.939-24.939A24.96743,24.96743,0,0,1,251.25065,186.84441Zm0-31.12793a6.189,6.189,0,1,0,6.189,6.189A6.19594,6.19594,0,0,0,251.25065,155.71648Z"/></svg>