<svg id="Layer_1" data-name="Layer 1" xmlns="http://www.w3.org/2000/svg" viewBox="0 0 300 300"><defs><style>.cls-1{fill:none;}.cls-2{fill:#7823dc;}</style></defs><polygon class="cls-1" points="187.5 93.75 187.5 37.5 37.5 37.5 37.5 187.5 93.75 187.5 93.75 93.75 187.5 93.75"/><polygon class="cls-1" points="112.5 206.25 112.5 262.5 262.5 262.5 262.5 112.5 206.25 112.5 206.25 206.25 112.5 206.25"/><polygon class="cls-2" points="37.5 187.5 37.5 37.5 93.75 37.5 206.25 37.5 206.25 18.75 18.75 18.75 18.75 206.25 37.5 206.25 37.5 187.5"/><path class="cls-2" d="M206.25,93.75H93.75v187.5h187.5V93.75ZM262.5,262.5h-150v-150h150Z"/><rect class="cls-2" x="227.74758" y="9.84541" width="18.748" height="106.06602" transform="translate(24.98955 186.08694) rotate(-45)"/><rect class="cls-2" x="53.50442" y="184.08857" width="18.748" height="106.06602" transform="translate(-149.25362 113.91306) rotate(-45)"/><rect class="cls-2" x="56.251" y="12.59199" width="18.748" height="106.06602" transform="translate(-27.18277 65.625) rotate(-45)"/><rect class="cls-2" x="168.75" y="103.125" width="37.5" height="65.625"/><polygon class="cls-2" points="168.75 94.259 206.743 94.259 146.188 32.748 112.5 34.829 168.75 94.259"/></svg>