<svg id="Layer_1" data-name="Layer 1" xmlns="http://www.w3.org/2000/svg" viewBox="0 0 300 300"><defs><style>.cls-1{fill:#7823dc;}</style></defs><path class="cls-1" d="M243.57853,37.64063l-.0698,149.70481,18.94569,18.74986.12245,56.26409H37.71763l-.16365-75.014h187.3684l.0698-149.70481h18.58635m18.75916-18.75H206.25134l-.00916,18.74127-.06065,130.96354H18.76278l.0412,18.79085.16365,75.01394.0412,18.70916H281.36807l-.0412-18.79077-.12245-56.26409-.01717-7.79965-5.54352-5.48651-13.38157-13.243.06637-141.876.00916-18.75873Z"/><path class="cls-1" d="M72.24446,124.43813v44.15724H37.42238V142.49383l34.82208-18.0557m18.75-30.84276L18.67238,131.0953v56.25007H90.99446v-93.75Z"/><path class="cls-1" d="M120.45842,125.54928v43.04609H90.84V142.09744l29.61846-16.54816m18.75-31.95391L72.09,131.0953v56.25007h67.11846v-93.75Z"/><path class="cls-1" d="M168.67238,125.65771v42.93766h-29.155V142.06024l29.155-16.40253m18.75-32.06234-66.655,37.49993v56.25007h66.655v-93.75Z"/><polygon class="cls-1" points="74.922 206.095 56.172 206.095 56.172 224.845 74.922 224.845 74.922 206.095 74.922 206.095"/><polygon class="cls-1" points="112.422 206.095 93.672 206.095 93.672 224.845 112.422 224.845 112.422 206.095 112.422 206.095"/><polygon class="cls-1" points="149.922 206.095 131.172 206.095 131.172 224.845 149.922 224.845 149.922 206.095 149.922 206.095"/><polygon class="cls-1" points="187.422 206.095 168.672 206.095 168.672 224.845 187.422 224.845 187.422 206.095 187.422 206.095"/></svg>